<svg version="1.1" id="Layer_1" xmlns="http://www.w3.org/2000/svg" xmlns:xlink="http://www.w3.org/1999/xlink" x="0px" y="0px"
	 width="100%" viewBox="0 0 346 192" enable-background="new 0 0 346 192" xml:space="preserve">
<path fill="none" opacity="1.000000" stroke="none" 
	d="
M225.000000,193.000000 
	C150.000015,193.000000 75.500015,193.000000 1.000020,193.000000 
	C1.000013,129.000015 1.000013,65.000031 1.000007,1.000037 
	C116.333305,1.000025 231.666611,1.000025 346.999939,1.000012 
	C346.999939,64.999962 346.999939,128.999924 346.999969,192.999939 
	C306.500000,193.000000 266.000000,193.000000 225.000000,193.000000 
M124.483673,83.109840 
	C127.331970,73.022682 130.180252,62.935528 133.028549,52.848370 
	C135.673233,61.424934 142.093277,61.443344 148.859665,60.908012 
	C150.846756,60.750801 152.942719,61.238792 154.830414,60.779766 
	C156.443756,60.387455 157.830246,59.062263 159.317078,58.149715 
	C157.794891,57.288746 156.118546,55.494881 154.775299,55.716839 
	C145.417633,57.263065 138.876434,54.240742 135.365448,45.148777 
	C134.971466,44.128510 133.224136,42.765850 132.453415,42.958473 
	C131.292542,43.248604 129.939545,44.605042 129.543945,45.798485 
	C127.990112,50.486053 126.782257,55.288155 125.440056,60.046070 
	C123.398445,67.283295 121.351952,74.519135 119.307533,81.755562 
	C118.837296,81.743385 118.367058,81.731209 117.896820,81.719032 
	C117.178612,79.404625 116.418007,77.102386 115.749161,74.773804 
	C111.832382,61.137402 107.988007,47.479771 103.963669,33.875313 
	C103.510796,32.344372 102.081619,31.102234 101.105186,29.726168 
	C99.953445,31.114342 98.202797,32.329632 97.744301,33.917927 
	C93.933929,47.117699 90.406441,60.398781 86.694611,73.627548 
	C85.351189,78.415421 83.738922,83.127846 82.249329,87.874695 
	C81.709984,87.793465 81.170631,87.712242 80.631287,87.631012 
	C80.144958,85.917030 79.626572,84.211403 79.177444,82.487732 
	C75.922859,69.997292 72.723572,57.492104 69.372864,45.027584 
	C69.040466,43.791084 67.810791,42.795788 66.997574,41.688541 
	C65.848206,42.677990 64.242790,43.443928 63.629169,44.695950 
	C61.098736,49.859039 58.796627,55.138737 56.545544,60.432953 
	C52.923729,68.950905 52.968815,68.969490 43.757462,68.971771 
	C42.257790,68.972137 40.666019,68.668694 39.285580,69.076675 
	C38.025299,69.449150 36.993896,70.596062 35.861622,71.401657 
	C36.961521,72.261215 38.010632,73.772552 39.170471,73.862938 
	C43.301735,74.184883 47.479340,73.866539 51.622543,74.095589 
	C54.834347,74.273148 56.412735,72.791687 57.606613,70.006805 
	C60.007092,64.407364 62.683365,58.926163 65.655411,52.512264 
	C66.272263,54.250202 66.565971,54.945484 66.768013,55.666454 
	C70.772644,69.956902 74.721176,84.263420 78.827774,98.524437 
	C79.276138,100.081474 80.622391,101.379944 81.552185,102.798355 
	C82.699196,101.324745 84.402176,100.017853 84.902237,98.350235 
	C87.959396,88.155182 90.735481,77.876007 93.621567,67.629463 
	C95.871231,59.642376 98.144592,51.661964 100.407433,43.678593 
	C101.828239,45.318913 102.332718,46.841984 102.778450,48.382061 
	C107.046150,63.127869 111.262390,77.888885 115.632996,92.604080 
	C116.041000,93.977783 117.407585,95.066780 118.329094,96.287964 
	C119.408272,95.173470 120.937462,94.240219 121.474304,92.907288 
	C122.644989,90.000648 123.310631,86.890594 124.483673,83.109840 
M302.496033,57.958103 
	C300.660828,53.873947 298.949646,49.726852 296.925598,45.738525 
	C296.181030,44.271385 294.697510,43.179260 293.551056,41.916080 
	C292.599823,43.316566 291.201111,44.591560 290.767639,46.137245 
	C287.050018,59.393188 283.518127,72.701141 279.891144,85.982735 
	C279.593414,87.072990 279.003601,88.083473 278.030945,90.327103 
	C272.509155,70.800117 267.428314,52.680305 262.202393,34.602432 
	C261.714355,32.914124 260.308411,31.491146 259.328644,29.944969 
	C258.243103,31.459757 256.657806,32.824913 256.152283,34.513359 
	C252.587646,46.419403 249.280441,58.402218 245.811462,70.337387 
	C244.660492,74.297333 243.275848,78.189369 241.998047,82.112450 
	C241.600937,82.093819 241.203827,82.075180 240.806732,82.056549 
	C236.929672,68.919617 233.052628,55.782692 229.175583,42.645763 
	C228.540802,42.627995 227.906021,42.610226 227.271240,42.592457 
	C225.847092,44.705753 224.087051,46.669575 223.066574,48.962528 
	C220.723145,54.228115 217.401657,57.148357 211.222351,55.830692 
	C208.992706,55.355244 206.545181,55.544014 204.257050,55.861645 
	C203.221542,56.005394 202.332458,57.203754 201.376953,57.923679 
	C202.131104,58.841114 202.859528,60.526279 203.643539,60.552555 
	C209.116119,60.735966 214.769516,61.343983 220.006500,60.189625 
	C222.483429,59.643646 224.163544,55.508057 226.228592,53.018681 
	C226.387787,52.826782 226.737030,52.792553 227.342484,52.543049 
	C227.864334,54.287773 228.398926,55.988430 228.881805,57.703655 
	C232.162918,69.358482 235.377350,81.032722 238.781876,92.651299 
	C239.179352,94.007736 240.607346,95.062210 241.557587,96.256676 
	C242.456497,95.021812 243.776413,93.912514 244.188065,92.532326 
	C247.641083,80.954636 250.915146,69.323685 254.269760,57.716476 
	C255.740662,52.627110 257.273499,47.555645 259.057861,41.531979 
	C259.658752,43.123562 259.862793,43.565472 259.994873,44.027935 
	C265.237152,62.387348 270.438751,80.758575 275.778046,99.089714 
	C276.180389,100.471039 277.557526,101.568428 278.481506,102.797798 
	C279.396301,101.536545 280.714417,100.400757 281.152863,98.991325 
	C282.676178,94.094650 283.898163,89.104065 285.227631,84.147285 
	C288.089661,73.476692 290.947266,62.804901 294.108582,51.006939 
	C296.251434,55.559196 298.429688,58.842857 299.372925,62.449505 
	C301.911377,72.155762 307.794281,75.856758 317.510132,73.835991 
	C319.724548,73.375420 321.972351,73.075447 324.204803,72.701546 
	C324.181366,72.091011 324.157959,71.480469 324.134521,70.869934 
	C319.113098,66.902306 312.767517,70.278221 307.290710,68.556015 
	C305.839294,65.270279 304.367920,61.939445 302.496033,57.958103 
M86.611626,170.518295 
	C86.611626,173.603088 86.611626,176.687897 86.611626,180.215683 
	C94.141037,179.286972 102.674637,183.229568 107.253845,174.725693 
	C110.521400,168.657669 110.111786,162.273193 103.538345,157.544373 
	C108.630806,152.350479 109.694679,146.414337 106.026390,140.592285 
	C101.356133,133.180008 93.760712,136.131851 87.078560,135.897278 
	C86.634682,144.018265 86.216454,151.669968 85.798218,159.321686 
	C85.689316,159.262161 85.580414,159.202637 85.471512,159.143127 
	C85.853516,162.616089 86.235519,166.089050 86.611626,170.518295 
M235.519684,142.657516 
	C235.059937,140.263062 234.600174,137.868607 234.166809,135.611557 
	C230.610962,135.611557 227.669144,135.611557 225.365295,135.611557 
	C223.299774,143.256256 220.774887,150.418701 219.537994,157.797089 
	C218.318039,165.074432 218.401733,172.570343 217.884399,180.411087 
	C219.864761,180.286102 223.266495,180.872238 223.811371,179.883698 
	C225.318192,177.149963 225.632599,173.758972 226.418579,170.627090 
	C228.529617,170.627090 230.608566,170.627090 232.735855,170.627090 
	C233.334351,173.969879 233.883530,177.037247 234.412964,179.994324 
	C236.904572,179.994324 239.116150,179.994324 241.646957,179.994324 
	C239.583954,167.556030 237.590149,155.535019 235.519684,142.657516 
M194.443207,136.494766 
	C189.775589,136.120056 185.107971,135.745331 180.901428,135.407639 
	C180.058594,143.673523 178.742874,150.978180 178.730637,158.285034 
	C178.718582,165.474380 180.028687,172.665939 180.788864,180.154251 
	C184.525009,180.154251 188.512497,180.477951 192.423706,180.070084 
	C197.030853,179.589615 200.887863,177.063675 201.877731,172.456161 
	C202.814453,168.095993 204.013229,163.100876 199.189194,159.728043 
	C197.016708,158.209106 197.315704,157.018799 198.941849,154.999649 
	C203.858734,148.894562 202.120544,141.064468 194.443207,136.494766 
M168.909973,84.385788 
	C166.700134,78.520226 164.624741,72.597649 162.179291,66.832016 
	C161.617645,65.507828 159.784332,64.723007 158.536240,63.689964 
	C158.136230,65.368401 157.654770,67.033691 157.380539,68.732430 
	C157.284988,69.324310 157.652740,70.017624 157.890900,70.632858 
	C164.207733,86.950577 170.493317,103.280762 176.933289,119.549797 
	C177.506760,120.998573 179.095825,122.045341 180.213211,123.278816 
	C181.265930,121.968460 182.724564,120.816788 183.308441,119.323158 
	C189.034760,104.674843 194.611359,89.968033 200.241913,75.282227 
	C201.070938,73.119934 202.287186,71.041985 202.706100,68.809044 
	C202.986801,67.312874 202.175308,65.611809 201.852509,64.002434 
	C200.690170,64.944656 199.429886,65.793533 198.406036,66.867752 
	C197.879547,67.420143 197.776306,68.374916 197.478745,69.146675 
	C192.530823,81.979073 187.612717,94.823166 182.595261,107.628319 
	C181.976501,109.207520 180.827332,110.578888 179.519058,112.704353 
	C175.792847,102.746696 172.492691,93.927635 168.909973,84.385788 
M158.453812,173.067673 
	C156.888840,172.975983 155.323883,172.884293 154.057495,172.810104 
	C155.097900,159.570099 165.678711,149.568832 165.010315,135.937988 
	C158.336426,135.937988 152.101410,135.937988 145.656052,135.937988 
	C145.548218,138.207611 145.455994,140.148636 145.338928,142.612762 
	C149.472824,142.612762 153.178436,142.612762 157.263962,142.612762 
	C153.175674,155.388367 145.009933,166.305557 145.287140,180.176697 
	C152.007584,180.176697 158.264435,180.176697 165.006943,180.176697 
	C165.006943,177.938995 165.006943,175.728424 165.006943,173.066437 
	C162.949081,173.066437 161.156769,173.066437 158.453812,173.067673 
M165.181320,35.011299 
	C164.613770,32.290581 164.046234,29.569859 163.478683,26.849138 
	C168.429764,29.264185 172.634354,32.154068 176.429840,35.507053 
	C179.112961,37.877365 181.102539,37.777000 183.723389,35.544067 
	C187.704559,32.152164 191.939056,29.057611 196.065933,25.836754 
	C196.345047,30.054476 195.392868,33.535141 195.042130,37.075394 
	C194.895828,38.552021 196.029388,40.155453 196.581009,41.701221 
	C197.602676,40.616356 199.233994,39.680424 199.541641,38.421124 
	C200.955490,32.633598 202.093979,26.771952 203.102356,20.897608 
	C203.321960,19.618299 202.601501,18.177622 202.314011,16.811262 
	C200.985382,17.220402 199.420273,17.311567 198.368835,18.093468 
	C193.698410,21.566629 188.878464,24.927559 184.690613,28.933361 
	C181.210312,32.262386 178.823883,31.729101 175.565186,28.809868 
	C171.237656,24.933151 166.533478,21.466789 161.878387,17.974392 
	C160.951111,17.278730 159.501465,16.997652 158.322388,17.062790 
	C157.872574,17.087641 157.045670,18.699564 157.173615,19.455734 
	C158.335983,26.325562 159.603012,33.180660 161.052063,39.994843 
	C161.214661,40.759430 162.807938,41.836948 163.533829,41.698692 
	C164.330429,41.546978 165.209595,40.240765 165.468582,39.280117 
	C165.754044,38.221298 165.375488,36.983463 165.181320,35.011299 
M123.414078,148.461716 
	C123.102547,151.867706 122.791023,155.273697 122.371536,159.859985 
	C125.117508,163.469543 123.089813,169.095383 123.339882,174.375793 
	C123.657272,181.077576 123.416298,181.088989 130.246094,180.083618 
	C130.246094,165.205093 130.246094,150.352325 130.246094,135.722137 
	C128.018448,135.722137 125.953888,135.722137 123.422630,135.722137 
	C123.422630,139.903976 123.422630,143.696762 123.414078,148.461716 
M269.098480,153.108170 
	C269.098480,149.524658 269.098480,145.941147 269.098480,142.140121 
	C271.728271,142.140121 273.675781,142.140121 275.825806,142.140121 
	C275.825806,140.017929 275.825806,138.132950 275.825806,136.005066 
	C269.134338,136.005066 262.716614,136.005066 255.874557,136.005066 
	C255.709778,138.135315 255.553223,140.159485 255.384827,142.336578 
	C257.901398,142.336578 259.843292,142.336578 262.154968,142.336578 
	C262.154968,154.834259 262.154968,167.220795 262.154968,179.761108 
	C265.086243,179.761108 266.834229,179.761108 269.104523,179.761108 
	C269.104523,176.775833 268.689209,173.919693 269.190002,171.234390 
	C270.270447,165.441162 266.221802,159.737534 269.098480,153.108170 
z"/>
<path fill="#EEEEEE" opacity="1.000000" stroke="none" 
	d="
M124.333160,83.486755 
	C123.310631,86.890594 122.644989,90.000648 121.474304,92.907288 
	C120.937462,94.240219 119.408272,95.173470 118.329094,96.287964 
	C117.407585,95.066780 116.041000,93.977783 115.632996,92.604080 
	C111.262390,77.888885 107.046150,63.127869 102.778450,48.382061 
	C102.332718,46.841984 101.828239,45.318913 100.407433,43.678593 
	C98.144592,51.661964 95.871231,59.642376 93.621567,67.629463 
	C90.735481,77.876007 87.959396,88.155182 84.902237,98.350235 
	C84.402176,100.017853 82.699196,101.324745 81.552185,102.798355 
	C80.622391,101.379944 79.276138,100.081474 78.827774,98.524437 
	C74.721176,84.263420 70.772644,69.956902 66.768013,55.666454 
	C66.565971,54.945484 66.272263,54.250202 65.655411,52.512264 
	C62.683365,58.926163 60.007092,64.407364 57.606613,70.006805 
	C56.412735,72.791687 54.834347,74.273148 51.622543,74.095589 
	C47.479340,73.866539 43.301735,74.184883 39.170471,73.862938 
	C38.010632,73.772552 36.961521,72.261215 35.861622,71.401657 
	C36.993896,70.596062 38.025299,69.449150 39.285580,69.076675 
	C40.666019,68.668694 42.257790,68.972137 43.757462,68.971771 
	C52.968815,68.969490 52.923729,68.950905 56.545544,60.432953 
	C58.796627,55.138737 61.098736,49.859039 63.629169,44.695950 
	C64.242790,43.443928 65.848206,42.677990 66.997574,41.688541 
	C67.810791,42.795788 69.040466,43.791084 69.372864,45.027584 
	C72.723572,57.492104 75.922859,69.997292 79.177444,82.487732 
	C79.626572,84.211403 80.144958,85.917030 80.631287,87.631012 
	C81.170631,87.712242 81.709984,87.793465 82.249329,87.874695 
	C83.738922,83.127846 85.351189,78.415421 86.694611,73.627548 
	C90.406441,60.398781 93.933929,47.117699 97.744301,33.917927 
	C98.202797,32.329632 99.953445,31.114342 101.105179,29.726170 
	C102.081619,31.102234 103.510796,32.344372 103.963669,33.875313 
	C107.988007,47.479771 111.832382,61.137402 115.749161,74.773804 
	C116.418007,77.102386 117.178612,79.404625 117.896820,81.719032 
	C118.367058,81.731209 118.837296,81.743385 119.307533,81.755562 
	C121.351952,74.519135 123.398445,67.283295 125.440056,60.046070 
	C126.782257,55.288155 127.990112,50.486053 129.543945,45.798485 
	C129.939545,44.605042 131.292542,43.248604 132.453415,42.958473 
	C133.224136,42.765850 134.971466,44.128510 135.365448,45.148777 
	C138.876434,54.240742 145.417633,57.263065 154.775299,55.716839 
	C156.118546,55.494881 157.794891,57.288746 159.317078,58.149712 
	C157.830246,59.062263 156.443756,60.387455 154.830414,60.779766 
	C152.942719,61.238792 150.846756,60.750801 148.859665,60.908012 
	C142.093277,61.443344 135.673233,61.424934 133.028549,52.848370 
	C130.180252,62.935528 127.331970,73.022682 124.333160,83.486755 
z"/>
<path fill="#F1F1F1" opacity="1.000000" stroke="none" 
	d="
M302.696289,58.283360 
	C304.367920,61.939445 305.839294,65.270279 307.290710,68.556015 
	C312.767517,70.278221 319.113098,66.902306 324.134521,70.869934 
	C324.157959,71.480469 324.181366,72.091011 324.204803,72.701546 
	C321.972351,73.075447 319.724548,73.375420 317.510132,73.835991 
	C307.794281,75.856758 301.911377,72.155762 299.372925,62.449505 
	C298.429688,58.842857 296.251434,55.559196 294.108582,51.006939 
	C290.947266,62.804901 288.089661,73.476692 285.227631,84.147285 
	C283.898163,89.104065 282.676178,94.094650 281.152863,98.991325 
	C280.714417,100.400757 279.396301,101.536545 278.481506,102.797806 
	C277.557526,101.568428 276.180389,100.471039 275.778046,99.089714 
	C270.438751,80.758575 265.237152,62.387348 259.994873,44.027935 
	C259.862793,43.565472 259.658752,43.123562 259.057861,41.531979 
	C257.273499,47.555645 255.740662,52.627110 254.269760,57.716476 
	C250.915146,69.323685 247.641083,80.954636 244.188065,92.532326 
	C243.776413,93.912514 242.456497,95.021812 241.557587,96.256668 
	C240.607346,95.062210 239.179352,94.007736 238.781876,92.651299 
	C235.377350,81.032722 232.162918,69.358482 228.881805,57.703655 
	C228.398926,55.988430 227.864334,54.287773 227.342484,52.543049 
	C226.737030,52.792553 226.387787,52.826782 226.228592,53.018681 
	C224.163544,55.508057 222.483429,59.643646 220.006500,60.189625 
	C214.769516,61.343983 209.116119,60.735966 203.643539,60.552555 
	C202.859528,60.526279 202.131104,58.841114 201.376953,57.923676 
	C202.332458,57.203754 203.221542,56.005394 204.257050,55.861645 
	C206.545181,55.544014 208.992706,55.355244 211.222351,55.830692 
	C217.401657,57.148357 220.723145,54.228115 223.066574,48.962528 
	C224.087051,46.669575 225.847092,44.705753 227.271240,42.592457 
	C227.906021,42.610226 228.540802,42.627995 229.175583,42.645763 
	C233.052628,55.782692 236.929672,68.919617 240.806732,82.056549 
	C241.203827,82.075180 241.600937,82.093819 241.998047,82.112450 
	C243.275848,78.189369 244.660492,74.297333 245.811462,70.337387 
	C249.280441,58.402218 252.587646,46.419403 256.152283,34.513359 
	C256.657806,32.824913 258.243103,31.459757 259.328644,29.944971 
	C260.308411,31.491146 261.714355,32.914124 262.202393,34.602432 
	C267.428314,52.680305 272.509155,70.800117 278.030945,90.327103 
	C279.003601,88.083473 279.593414,87.072990 279.891144,85.982735 
	C283.518127,72.701141 287.050018,59.393188 290.767639,46.137245 
	C291.201111,44.591560 292.599823,43.316566 293.551056,41.916077 
	C294.697510,43.179260 296.181030,44.271385 296.925598,45.738525 
	C298.949646,49.726852 300.660828,53.873947 302.696289,58.283360 
z"/>
<path fill="#F3F3F3" opacity="1.000000" stroke="none" 
	d="
M86.614578,170.040161 
	C86.235519,166.089050 85.853516,162.616089 85.471512,159.143127 
	C85.580414,159.202637 85.689316,159.262161 85.798218,159.321686 
	C86.216454,151.669968 86.634682,144.018265 87.078560,135.897278 
	C93.760712,136.131851 101.356133,133.180008 106.026390,140.592285 
	C109.694679,146.414337 108.630806,152.350479 103.538345,157.544373 
	C110.111786,162.273193 110.521400,168.657669 107.253845,174.725693 
	C102.674637,183.229568 94.141037,179.286972 86.611626,180.215683 
	C86.611626,176.687897 86.611626,173.603088 86.614578,170.040161 
M93.552467,170.107681 
	C93.035568,173.730652 95.186234,174.193893 97.694656,173.095169 
	C101.467575,171.442627 102.248840,168.172333 101.193726,164.422318 
	C100.072838,160.438492 97.377762,159.565994 93.555191,160.685440 
	C93.555191,163.676147 93.555191,166.481567 93.552467,170.107681 
M99.557327,152.038834 
	C102.207710,145.749222 100.654922,142.922241 94.012413,142.484329 
	C94.012413,146.175552 94.012413,149.845291 94.012413,154.113205 
	C96.015938,153.520065 97.520889,153.074509 99.557327,152.038834 
z"/>
<path fill="#EEEEEE" opacity="1.000000" stroke="none" 
	d="
M235.558014,143.085754 
	C237.590149,155.535019 239.583954,167.556030 241.646957,179.994324 
	C239.116150,179.994324 236.904572,179.994324 234.412964,179.994324 
	C233.883530,177.037247 233.334351,173.969879 232.735855,170.627090 
	C230.608566,170.627090 228.529617,170.627090 226.418579,170.627090 
	C225.632599,173.758972 225.318192,177.149963 223.811371,179.883698 
	C223.266495,180.872238 219.864761,180.286102 217.884399,180.411087 
	C218.401733,172.570343 218.318039,165.074432 219.537994,157.797089 
	C220.774887,150.418701 223.299774,143.256256 225.365295,135.611557 
	C227.669144,135.611557 230.610962,135.611557 234.166809,135.611557 
	C234.600174,137.868607 235.059937,140.263062 235.558014,143.085754 
z"/>
<path fill="#F7F7F7" opacity="1.000000" stroke="none" 
	d="
M194.830017,136.637772 
	C202.120544,141.064468 203.858734,148.894562 198.941849,154.999649 
	C197.315704,157.018799 197.016708,158.209106 199.189194,159.728043 
	C204.013229,163.100876 202.814453,168.095993 201.877731,172.456161 
	C200.887863,177.063675 197.030853,179.589615 192.423706,180.070084 
	C188.512497,180.477951 184.525009,180.154251 180.788864,180.154251 
	C180.028687,172.665939 178.718582,165.474380 178.730637,158.285034 
	C178.742874,150.978180 180.058594,143.673523 180.901428,135.407639 
	C185.107971,135.745331 189.775589,136.120056 194.830017,136.637772 
M191.653473,160.526917 
	C190.234024,160.399551 188.814575,160.272186 187.373611,160.142883 
	C187.373611,164.638153 187.373611,168.744736 187.373611,174.425415 
	C190.144394,172.981583 193.028000,172.446045 193.831543,170.858002 
	C195.480957,167.598267 195.986694,163.779724 191.653473,160.526917 
M193.782990,144.760132 
	C191.791473,143.754303 189.799957,142.748474 187.310547,141.491180 
	C187.310547,146.258636 187.310547,149.848038 187.310547,153.419022 
	C193.420105,153.884384 195.026581,151.934570 193.782990,144.760132 
z"/>
<path fill="#EFEFEF" opacity="1.000000" stroke="none" 
	d="
M169.051254,84.747177 
	C172.492691,93.927635 175.792847,102.746696 179.519058,112.704353 
	C180.827332,110.578888 181.976501,109.207520 182.595261,107.628319 
	C187.612717,94.823166 192.530823,81.979073 197.478745,69.146675 
	C197.776306,68.374916 197.879547,67.420143 198.406036,66.867752 
	C199.429886,65.793533 200.690170,64.944656 201.852509,64.002434 
	C202.175308,65.611809 202.986801,67.312874 202.706100,68.809044 
	C202.287186,71.041985 201.070938,73.119934 200.241913,75.282227 
	C194.611359,89.968033 189.034760,104.674843 183.308441,119.323158 
	C182.724564,120.816788 181.265930,121.968460 180.213211,123.278809 
	C179.095825,122.045341 177.506760,120.998573 176.933289,119.549797 
	C170.493317,103.280762 164.207733,86.950577 157.890900,70.632858 
	C157.652740,70.017624 157.284988,69.324310 157.380539,68.732430 
	C157.654770,67.033691 158.136230,65.368401 158.536255,63.689964 
	C159.784332,64.723007 161.617645,65.507828 162.179291,66.832016 
	C164.624741,72.597649 166.700134,78.520226 169.051254,84.747177 
z"/>
<path fill="#F1F1F2" opacity="1.000000" stroke="none" 
	d="
M158.909119,173.067047 
	C161.156769,173.066437 162.949081,173.066437 165.006943,173.066437 
	C165.006943,175.728424 165.006943,177.938995 165.006943,180.176697 
	C158.264435,180.176697 152.007584,180.176697 145.287140,180.176697 
	C145.009933,166.305557 153.175674,155.388367 157.263962,142.612762 
	C153.178436,142.612762 149.472824,142.612762 145.338928,142.612762 
	C145.455994,140.148636 145.548218,138.207611 145.656052,135.937988 
	C152.101410,135.937988 158.336426,135.937988 165.010315,135.937988 
	C165.678711,149.568832 155.097900,159.570099 154.057495,172.810104 
	C155.323883,172.884293 156.888840,172.975983 158.909119,173.067047 
z"/>
<path fill="#EFEFEE" opacity="1.000000" stroke="none" 
	d="
M165.233765,35.417458 
	C165.375488,36.983463 165.754044,38.221298 165.468582,39.280117 
	C165.209595,40.240765 164.330429,41.546978 163.533829,41.698692 
	C162.807938,41.836948 161.214661,40.759430 161.052063,39.994843 
	C159.603012,33.180660 158.335983,26.325562 157.173615,19.455734 
	C157.045670,18.699564 157.872574,17.087641 158.322388,17.062790 
	C159.501465,16.997652 160.951111,17.278730 161.878387,17.974392 
	C166.533478,21.466789 171.237656,24.933151 175.565186,28.809868 
	C178.823883,31.729101 181.210312,32.262386 184.690613,28.933361 
	C188.878464,24.927559 193.698410,21.566629 198.368835,18.093468 
	C199.420273,17.311567 200.985382,17.220402 202.314011,16.811262 
	C202.601501,18.177622 203.321960,19.618299 203.102356,20.897608 
	C202.093979,26.771952 200.955490,32.633598 199.541641,38.421124 
	C199.233994,39.680424 197.602676,40.616356 196.581009,41.701225 
	C196.029388,40.155453 194.895828,38.552021 195.042130,37.075394 
	C195.392868,33.535141 196.345047,30.054476 196.065933,25.836754 
	C191.939056,29.057611 187.704559,32.152164 183.723389,35.544067 
	C181.102539,37.777000 179.112961,37.877365 176.429840,35.507053 
	C172.634354,32.154068 168.429764,29.264185 163.478683,26.849138 
	C164.046234,29.569859 164.613770,32.290581 165.233765,35.417458 
z"/>
<path fill="#E5E4E5" opacity="1.000000" stroke="none" 
	d="
M123.418350,147.975616 
	C123.422630,143.696762 123.422630,139.903976 123.422630,135.722137 
	C125.953888,135.722137 128.018448,135.722137 130.246094,135.722137 
	C130.246094,150.352325 130.246094,165.205093 130.246094,180.083618 
	C123.416298,181.088989 123.657272,181.077576 123.339882,174.375793 
	C123.089813,169.095383 125.117508,163.469543 122.371536,159.859985 
	C122.791023,155.273697 123.102547,151.867706 123.418350,147.975616 
z"/>
<path fill="#FAFAFA" opacity="1.000000" stroke="none" 
	d="
M269.098694,153.551910 
	C266.221802,159.737534 270.270447,165.441162 269.190002,171.234390 
	C268.689209,173.919693 269.104523,176.775833 269.104523,179.761108 
	C266.834229,179.761108 265.086243,179.761108 262.154968,179.761108 
	C262.154968,167.220795 262.154968,154.834259 262.154968,142.336578 
	C259.843292,142.336578 257.901398,142.336578 255.384827,142.336578 
	C255.553223,140.159485 255.709778,138.135315 255.874557,136.005066 
	C262.716614,136.005066 269.134338,136.005066 275.825806,136.005066 
	C275.825806,138.132950 275.825806,140.017929 275.825806,142.140121 
	C273.675781,142.140121 271.728271,142.140121 269.098480,142.140121 
	C269.098480,145.941147 269.098480,149.524658 269.098694,153.551910 
z"/>
<path fill="#1A191A" opacity="1.000000" stroke="none" 
	d="
M93.553833,169.697327 
	C93.555191,166.481567 93.555191,163.676147 93.555191,160.685440 
	C97.377762,159.565994 100.072838,160.438492 101.193726,164.422318 
	C102.248840,168.172333 101.467575,171.442627 97.694656,173.095169 
	C95.186234,174.193893 93.035568,173.730652 93.553833,169.697327 
z"/>
<path fill="#1A1A1B" opacity="1.000000" stroke="none" 
	d="
M99.291580,152.333893 
	C97.520889,153.074509 96.015938,153.520065 94.012413,154.113205 
	C94.012413,149.845291 94.012413,146.175552 94.012413,142.484329 
	C100.654922,142.922241 102.207710,145.749222 99.291580,152.333893 
z"/>
<path fill="#1C1B1D" opacity="1.000000" stroke="none" 
	d="
M191.986557,160.756989 
	C195.986694,163.779724 195.480957,167.598267 193.831543,170.858002 
	C193.028000,172.446045 190.144394,172.981583 187.373611,174.425415 
	C187.373611,168.744736 187.373611,164.638153 187.373611,160.142883 
	C188.814575,160.272186 190.234024,160.399551 191.986557,160.756989 
z"/>
<path fill="#212022" opacity="1.000000" stroke="none" 
	d="
M193.941895,145.101440 
	C195.026581,151.934570 193.420105,153.884384 187.310547,153.419022 
	C187.310547,149.848038 187.310547,146.258636 187.310547,141.491180 
	C189.799957,142.748474 191.791473,143.754303 193.941895,145.101440 
z"/>
</svg>